<svg width="20" height="20" viewBox="0 0 20 20" fill="none" xmlns="http://www.w3.org/2000/svg">
<path d="M15.7792 12.5208L15.0625 7.5C15.7083 7.5 16.275 7.6125 16.5667 7.05C16.9434 6.9735 17.2822 6.76909 17.5255 6.47142C17.7688 6.17375 17.9017 5.80112 17.9017 5.41667C17.9017 5.03221 17.7688 4.65958 17.5255 4.36191C17.2822 4.06424 16.9434 3.85984 16.5667 3.78333C16.4969 3.64871 16.3918 3.53567 16.2626 3.45637C16.1333 3.37708 15.9849 3.33454 15.8333 3.33333H13.75C13.5292 3.33333 13.75 3.61667 12.8708 1.89583C12.8502 1.85597 12.8219 1.82058 12.7875 1.79167C12.8789 1.60155 12.9207 1.39139 12.909 1.18076C12.8974 0.970133 12.8326 0.765886 12.7207 0.587045C12.6088 0.408205 12.4535 0.260587 12.2692 0.157942C12.0849 0.0552965 11.8776 0.000962377 11.6667 0L10.4167 0C10.3062 0 10.2002 0.0438987 10.122 0.122039C10.0439 0.200179 10 0.30616 10 0.416667V2.08333C10 2.19384 10.0439 2.29982 10.122 2.37796C10.2002 2.4561 10.3062 2.5 10.4167 2.5C11.725 2.5 11.85 2.5375 12.1833 2.38333L12.7833 3.58333C12.5107 3.72551 12.2729 3.92627 12.0871 4.1712C11.9012 4.41613 11.7719 4.69917 11.7083 5H10.4167C10.3062 5 10.2002 5.0439 10.122 5.12204C10.0439 5.20018 10 5.30616 10 5.41667C10 5.52717 10.0439 5.63315 10.122 5.71129C10.2002 5.78943 10.3062 5.83333 10.4167 5.83333H11.7083C11.8104 6.33283 12.0921 6.77757 12.5 7.08333L11.8708 14.6167C11.8624 14.7213 11.8149 14.8189 11.7376 14.89C11.6604 14.961 11.5591 15.0003 11.4542 15H9.16667C9.16667 10.9167 9.2125 11.075 9.04167 10.7125C9.51667 10.2458 8.75 8.33333 7.08333 8.33333H6.66667V5.41667C6.66667 5.30616 6.62277 5.20018 6.54463 5.12204C6.46649 5.0439 6.36051 5 6.25 5H0.416667C0.30616 5 0.200179 5.0439 0.122039 5.12204C0.0438987 5.20018 0 5.30616 0 5.41667L0 10.4167C0 10.5272 0.0438987 10.6332 0.122039 10.7113C0.200179 10.7894 0.30616 10.8333 0.416667 10.8333H2.54167C1.76482 11.3198 1.12414 11.9955 0.679613 12.7971C0.235085 13.5987 0.00124946 14.5001 0 15.4167L0 17.0833C0 17.1938 0.0438987 17.2998 0.122039 17.378C0.200179 17.4561 0.30616 17.5 0.416667 17.5H1.7C1.78807 18.1317 2.08079 18.7172 2.53333 19.1667H0.416667C0.30616 19.1667 0.200179 19.2106 0.122039 19.2887C0.0438987 19.3668 0 19.4728 0 19.5833C0 19.6938 0.0438987 19.7998 0.122039 19.878C0.200179 19.9561 0.30616 20 0.416667 20H4.58333C5.2841 19.9992 5.96115 19.7461 6.49061 19.287C7.02008 18.8279 7.36656 18.1936 7.46667 17.5H12.95C13.0381 18.1317 13.3308 18.7172 13.7833 19.1667H11.6667C11.5562 19.1667 11.4502 19.2106 11.372 19.2887C11.2939 19.3668 11.25 19.4728 11.25 19.5833C11.25 19.6938 11.2939 19.7998 11.372 19.878C11.4502 19.9561 11.5562 20 11.6667 20H15.8333C16.5341 19.9992 17.2111 19.7461 17.7406 19.287C18.2701 18.8279 18.6166 18.1936 18.7167 17.5H19.5833C19.6938 17.5 19.7998 17.4561 19.878 17.378C19.9561 17.2998 20 17.1938 20 17.0833C19.9984 15.9316 19.5632 14.8227 18.7811 13.9773C17.999 13.1319 16.9273 12.6119 15.7792 12.5208ZM11.6667 1.66667H10.8333V0.833333H11.6667C11.7772 0.833333 11.8832 0.877232 11.9613 0.955372C12.0394 1.03351 12.0833 1.13949 12.0833 1.25C12.0833 1.36051 12.0394 1.46649 11.9613 1.54463C11.8832 1.62277 11.7772 1.66667 11.6667 1.66667ZM16.6667 6.13333V4.7C16.791 4.77379 16.894 4.87866 16.9656 5.00431C17.0371 5.12996 17.0748 5.27207 17.0748 5.41667C17.0748 5.56126 17.0371 5.70337 16.9656 5.82902C16.894 5.95467 16.791 6.05955 16.6667 6.13333ZM12.9167 5H12.575C12.661 4.75685 12.82 4.54625 13.0304 4.39706C13.2407 4.24787 13.4921 4.16739 13.75 4.16667H15.8333V6.66667H13.75C13.4921 6.66594 13.2407 6.58547 13.0304 6.43628C12.82 6.28708 12.661 6.07648 12.575 5.83333H12.9167C13.0272 5.83333 13.1332 5.78943 13.2113 5.71129C13.2894 5.63315 13.3333 5.52717 13.3333 5.41667C13.3333 5.30616 13.2894 5.20018 13.2113 5.12204C13.1332 5.0439 13.0272 5 12.9167 5ZM8.33333 16.6667H3.75V15.4167C3.75 14.9746 3.92559 14.5507 4.23816 14.2382C4.55072 13.9256 4.97464 13.75 5.41667 13.75H8.33333V16.6667ZM7.08333 9.16667C7.34194 9.16653 7.59422 9.24661 7.80541 9.39586C8.0166 9.54511 8.1763 9.75618 8.2625 10H6.66667V9.16667H7.08333ZM3.75 5.83333V7.24167C3.275 7.00417 3.33333 7.04167 2.91667 7.24167V5.83333H3.75ZM0.833333 10V5.83333H2.08333C2.08333 8.00417 1.99167 8.175 2.3625 8.30833C2.58333 8.3875 2.70833 8.27917 3.33333 7.96667C4.03333 8.31667 4.05833 8.3625 4.25417 8.32083C4.70417 8.225 4.58333 7.92917 4.58333 5.82083H5.83333V10H0.833333ZM0.833333 15.4167C0.833333 14.2011 1.31622 13.0353 2.17576 12.1758C3.0353 11.3162 4.20109 10.8333 5.41667 10.8333H7.91667C8.02717 10.8333 8.13315 10.8772 8.21129 10.9554C8.28943 11.0335 8.33333 11.1395 8.33333 11.25V12.9167H5.41667C4.75363 12.9167 4.11774 13.1801 3.6489 13.6489C3.18006 14.1177 2.91667 14.7536 2.91667 15.4167V16.6667H0.833333V15.4167ZM2.54167 17.5H3.86667C3.94045 17.6244 4.04533 17.7274 4.17098 17.7989C4.29663 17.8705 4.43874 17.9081 4.58333 17.9081C4.72793 17.9081 4.87004 17.8705 4.99569 17.7989C5.12134 17.7274 5.22621 17.6244 5.3 17.5H6.625C6.52937 17.971 6.27386 18.3944 5.90177 18.6985C5.52969 19.0026 5.0639 19.1688 4.58333 19.1688C4.10277 19.1688 3.63698 19.0026 3.26489 18.6985C2.8928 18.3944 2.6373 17.971 2.54167 17.5ZM9.16667 16.6667V15.8333H11.4542C11.7684 15.8344 12.0715 15.7171 12.3032 15.5048C12.5348 15.2924 12.678 15.0006 12.7042 14.6875L13.3 7.5H14.2208L15 12.8667L13.4667 16.6667H9.16667ZM13.7917 17.5H15.1167C15.1905 17.6244 15.2953 17.7274 15.421 17.7989C15.5466 17.8705 15.6887 17.9081 15.8333 17.9081C15.9779 17.9081 16.12 17.8705 16.2457 17.7989C16.3713 17.7274 16.4762 17.6244 16.55 17.5H17.875C17.7794 17.971 17.5239 18.3944 17.1518 18.6985C16.7797 19.0026 16.3139 19.1688 15.8333 19.1688C15.3528 19.1688 14.887 19.0026 14.5149 18.6985C14.1428 18.3944 13.8873 17.971 13.7917 17.5ZM14.3667 16.6667L15.6917 13.3333C16.57 13.3927 17.3995 13.7591 18.0349 14.3686C18.6702 14.978 19.0708 15.7915 19.1667 16.6667H14.3667Z" fill="white"/>
<path d="M10 19.167H9.16667C9.05616 19.167 8.95018 19.2109 8.87204 19.289C8.7939 19.3672 8.75 19.4732 8.75 19.5837C8.75 19.6942 8.7939 19.8001 8.87204 19.8783C8.95018 19.9564 9.05616 20.0003 9.16667 20.0003H10C10.1105 20.0003 10.2165 19.9564 10.2946 19.8783C10.3728 19.8001 10.4167 19.6942 10.4167 19.5837C10.4167 19.4732 10.3728 19.3672 10.2946 19.289C10.2165 19.2109 10.1105 19.167 10 19.167Z" fill="white"/>
</svg>
