<svg width="51" height="50" viewBox="0 0 51 50" fill="none" xmlns="http://www.w3.org/2000/svg">
<circle cx="25.5" cy="25" r="25" fill="#00B074" fill-opacity="0.15"/>
<path d="M22.451 11.7646L8.73525 17.4225L22.451 23.0804L36.1667 17.4225L22.451 11.7646Z" fill="#00B074"/>
<path d="M16.8839 14.073L14.3024 15.114L28.0181 20.7945L30.5772 19.7309L16.8839 14.073Z" fill="#F7C604"/>
<path d="M8.73515 17.4226V33.0157L22.4509 38.6736V23.0805L8.73515 17.4226Z" fill="#0A5239"/>
<path d="M36.1666 17.4226V33.0157L22.4509 38.6736V23.0805L36.1666 17.4226Z" fill="#00D68D"/>
<path opacity="0.1" d="M36.1664 25.389C35.7624 25.2984 35.3583 25.2532 34.9318 25.2532C31.6095 25.2532 28.9157 27.969 28.9157 31.3184C28.9157 32.88 29.4994 34.3058 30.4646 35.3694L36.1664 33.0158V25.389Z" fill="#0C1E5B"/>
<path d="M28.018 20.7946V27.3351L30.577 26.2715V19.731L28.018 20.7946Z" fill="#F7C604"/>
<path d="M37.3788 36.9308C40.7013 36.9308 43.3948 34.2153 43.3948 30.8655C43.3948 27.5158 40.7013 24.8003 37.3788 24.8003C34.0562 24.8003 31.3627 27.5158 31.3627 30.8655C31.3627 34.2153 34.0562 36.9308 37.3788 36.9308Z" fill="#FF5B5B"/>
<path d="M36.7505 33.2193C36.571 33.2193 36.4138 33.1514 36.2791 33.0157L34.3711 31.092C34.1017 30.8204 34.1017 30.3904 34.3711 30.1415C34.6404 29.8699 35.067 29.8699 35.3139 30.1415L36.7505 31.5899L39.4443 28.8741C39.7137 28.6025 40.1402 28.6025 40.3871 28.8741C40.6565 29.1457 40.6565 29.5757 40.3871 29.8246L37.222 33.0157C37.0873 33.1514 36.9301 33.2193 36.7505 33.2193Z" fill="white"/>
<path d="M13.1798 30.9109L11.6982 27.833L10.3064 29.6662L11.0697 30.0056V31.9972L12.3043 32.563V30.5488L13.1798 30.9109Z" fill="#F2F5F3"/>
</svg>
