<svg width="18" height="18" viewBox="0 0 18 18" fill="none" xmlns="http://www.w3.org/2000/svg">
<path fill-rule="evenodd" clip-rule="evenodd" d="M4 0.25C2.28152 0.25 0.875 1.65651 0.875 3.375V17.125C0.87505 17.2591 0.918234 17.3897 0.998174 17.4973C1.07811 17.605 1.19057 17.6841 1.31893 17.723C1.44729 17.7619 1.58475 17.7584 1.71099 17.7132C1.83724 17.6679 1.94559 17.5832 2.02002 17.4717L2.75 16.3767L3.47998 17.4717C3.53707 17.5573 3.6144 17.6275 3.70511 17.676C3.79582 17.7245 3.89712 17.7499 4 17.7499C4.10288 17.7499 4.20418 17.7245 4.29489 17.676C4.3856 17.6275 4.46293 17.5573 4.52002 17.4717L5.25 16.3767L5.97998 17.4717C6.03707 17.5573 6.1144 17.6275 6.20511 17.676C6.29583 17.7245 6.39712 17.7499 6.5 17.7499C6.60288 17.7499 6.70417 17.7245 6.79489 17.676C6.8856 17.6275 6.96293 17.5573 7.02002 17.4717L7.75 16.3767L8.47998 17.4717C8.53707 17.5573 8.6144 17.6275 8.70511 17.676C8.79583 17.7245 8.89712 17.7499 9 17.7499C9.10288 17.7499 9.20417 17.7245 9.29489 17.676C9.3856 17.6275 9.46293 17.5573 9.52002 17.4717L10.25 16.3767L10.98 17.4717C11.0544 17.5832 11.1628 17.6679 11.289 17.7132C11.4153 17.7584 11.5527 17.7619 11.6811 17.723C11.8094 17.6841 11.9219 17.605 12.0018 17.4973C12.0818 17.3897 12.125 17.2591 12.125 17.125V9.625H16.5C16.6658 9.62498 16.8247 9.55913 16.9419 9.44192C17.0591 9.32472 17.125 9.16576 17.125 9V3.375C17.125 1.65651 15.7185 0.25 14 0.25H4ZM4 1.5H11.5049C11.1099 2.02332 10.875 2.67287 10.875 3.375V4V9V15.0608L10.77 14.9033C10.7129 14.8177 10.6356 14.7475 10.5449 14.699C10.4542 14.6505 10.3529 14.6251 10.25 14.6251C10.1471 14.6251 10.0458 14.6505 9.95511 14.699C9.8644 14.7475 9.78707 14.8177 9.72998 14.9033L9 15.9983L8.27002 14.9033C8.21293 14.8177 8.1356 14.7475 8.04489 14.699C7.95417 14.6505 7.85288 14.6251 7.75 14.6251C7.64712 14.6251 7.54583 14.6505 7.45511 14.699C7.3644 14.7475 7.28707 14.8177 7.22998 14.9033L6.5 15.9983L5.77002 14.9033C5.71293 14.8177 5.6356 14.7475 5.54489 14.699C5.45417 14.6505 5.35288 14.6251 5.25 14.6251C5.14712 14.6251 5.04583 14.6505 4.95511 14.699C4.8644 14.7475 4.78707 14.8177 4.72998 14.9033L4 15.9983L3.27002 14.9033C3.21293 14.8177 3.1356 14.7475 3.04489 14.699C2.95418 14.6505 2.85288 14.6251 2.75 14.6251C2.64712 14.6251 2.54582 14.6505 2.45511 14.699C2.3644 14.7475 2.28707 14.8177 2.22998 14.9033L2.125 15.0608V3.375C2.125 2.33206 2.95706 1.5 4 1.5ZM14 1.5C15.0429 1.5 15.875 2.33206 15.875 3.375V8.375H12.125V4V3.375C12.125 2.33206 12.9571 1.5 14 1.5Z" fill="white"/>
<path fill-rule="evenodd" clip-rule="evenodd" d="M4 7.75C3.83424 7.75 3.67527 7.81585 3.55806 7.93306C3.44085 8.05027 3.375 8.20924 3.375 8.375C3.375 8.54076 3.44085 8.69973 3.55806 8.81694C3.67527 8.93415 3.83424 9 4 9H6.5C6.66576 9 6.82473 8.93415 6.94194 8.81694C7.05915 8.69973 7.125 8.54076 7.125 8.375C7.125 8.20924 7.05915 8.05027 6.94194 7.93306C6.82473 7.81585 6.66576 7.75 6.5 7.75H4Z" fill="white"/>
<path fill-rule="evenodd" clip-rule="evenodd" d="M4 9.625C3.83424 9.625 3.67527 9.69085 3.55806 9.80806C3.44085 9.92527 3.375 10.0842 3.375 10.25C3.375 10.4158 3.44085 10.5747 3.55806 10.6919C3.67527 10.8092 3.83424 10.875 4 10.875H9C9.16576 10.875 9.32473 10.8092 9.44194 10.6919C9.55915 10.5747 9.625 10.4158 9.625 10.25C9.625 10.0842 9.55915 9.92527 9.44194 9.80806C9.32473 9.69085 9.16576 9.625 9 9.625H4Z" fill="white"/>
<path fill-rule="evenodd" clip-rule="evenodd" d="M4 11.5C3.83424 11.5 3.67527 11.5658 3.55806 11.6831C3.44085 11.8003 3.375 11.9592 3.375 12.125C3.375 12.2908 3.44085 12.4497 3.55806 12.5669C3.67527 12.6842 3.83424 12.75 4 12.75H9C9.16576 12.75 9.32473 12.6842 9.44194 12.5669C9.55915 12.4497 9.625 12.2908 9.625 12.125C9.625 11.9592 9.55915 11.8003 9.44194 11.6831C9.32473 11.5658 9.16576 11.5 9 11.5H4Z" fill="white"/>
<path fill-rule="evenodd" clip-rule="evenodd" d="M4 3.375C3.83424 3.37502 3.67528 3.44087 3.55808 3.55808C3.44087 3.67528 3.37502 3.83424 3.375 4V6.5C3.37502 6.66576 3.44087 6.82472 3.55808 6.94192C3.67528 7.05913 3.83424 7.12498 4 7.125H6.5C6.66576 7.12498 6.82472 7.05913 6.94192 6.94192C7.05913 6.82472 7.12498 6.66576 7.125 6.5V4C7.12498 3.83424 7.05913 3.67528 6.94192 3.55808C6.82472 3.44087 6.66576 3.37502 6.5 3.375H4ZM4.625 4.625H5.875V5.875H4.625V4.625Z" fill="white"/>
</svg>
