<svg width="20" height="20" viewBox="0 0 20 20" fill="none" xmlns="http://www.w3.org/2000/svg">
<g clip-path="url(#clip0_694_841)">
<path d="M17.1056 12.5425C16.1908 12.5425 15.4512 11.802 15.4512 10.8862C15.4512 9.97033 16.1908 9.22591 17.1056 9.22591C18.0204 9.22591 18.7639 9.97026 18.7639 10.8862C18.7639 11.8021 18.0204 12.5425 17.1056 12.5425ZM2.88187 12.5425C1.96709 12.5425 1.22361 11.802 1.22361 10.8862C1.22361 9.96642 1.96709 9.22591 2.88187 9.22591C3.79665 9.22591 4.54014 9.96642 4.54014 10.8862C4.54014 11.802 3.79665 12.5425 2.88187 12.5425ZM3.29059 2.86521C5.48603 2.63918 7.73985 2.52614 9.99341 2.52614C12.2511 2.52614 14.5011 2.63917 16.7002 2.86521L17.9731 7.31594H2.0133L3.29059 2.86521ZM19.402 7.31594L17.7632 1.59858C15.2018 1.29849 12.6093 1.15039 9.99341 1.15039C7.37754 1.15039 4.7851 1.29849 2.22364 1.59858L0.584836 7.31594C-0.399971 7.31594 -1.19019 8.11098 -1.19019 9.09698V15.7416H0.569281V18.5788C1.00137 18.7347 1.45679 18.8204 1.9395 18.8204C2.41829 18.8204 2.88539 18.7386 3.31362 18.5866V15.7415L16.6769 15.7376L16.6729 18.5787C17.105 18.7346 17.5604 18.8203 18.0471 18.8203C18.522 18.8203 18.9929 18.7385 19.4173 18.5865V15.7376H21.1845V9.09629C21.1845 8.11029 20.3865 7.31524 19.4017 7.31524" fill="white"/>
</g>
<defs>
<clipPath id="clip0_694_841">
<rect width="20" height="20" fill="white"/>
</clipPath>
</defs>
</svg>
