<svg width="50" height="50" viewBox="0 0 50 50" fill="none" xmlns="http://www.w3.org/2000/svg">
<circle cx="25" cy="25" r="25" fill="#00B074" fill-opacity="0.15"/>
<path d="M15.3849 37.4316C17.2478 37.4316 18.7699 35.8951 18.7699 34.0147V12H38.5344V34.0147C38.5344 35.8951 37.0123 37.4316 35.1495 37.4316" fill="#00B074"/>
<path d="M31.7646 34.0151V31.4238H12V34.0151C12 35.8956 13.5221 37.432 15.385 37.432H35.1495C33.2867 37.432 31.7646 35.8956 31.7646 34.0151Z" fill="#0A5239"/>
<path d="M24.8355 16.3799H22.3138V17.4806H24.8355V16.3799Z" fill="#F7C604"/>
<path d="M34.5361 16.3799H26.7893V17.4806H34.5361V16.3799Z" fill="#F3F2F7"/>
<path d="M24.8355 20.2783H22.3138V21.3791H24.8355V20.2783Z" fill="#F7C604"/>
<path d="M34.5361 20.2783H26.7893V21.3791H34.5361V20.2783Z" fill="#F3F2F7"/>
<path d="M24.8355 24.1768H22.3138V25.2775H24.8355V24.1768Z" fill="#F7C604"/>
<path d="M34.5361 24.1768H26.7893V25.2775H34.5361V24.1768Z" fill="#F3F2F7"/>
<path d="M24.8355 28.0752H22.3138V29.1759H24.8355V28.0752Z" fill="#F7C604"/>
<path d="M34.5361 28.0752H26.7893V29.1759H34.5361V28.0752Z" fill="#F3F2F7"/>
</svg>
