<svg width="50" height="50" viewBox="0 0 50 50" fill="none" xmlns="http://www.w3.org/2000/svg">
<circle cx="25" cy="25" r="25" fill="#C9EFFF"/>
<g clip-path="url(#clip0_667_6770)">
<path d="M35.8892 30.6672C35.9407 30.4797 36.1095 30.3438 36.311 30.3438C36.3345 30.3438 36.3579 30.3437 36.3767 30.3484L36.3813 30.3531L36.5735 30.6484L36.0579 30.9578L35.8892 30.6672Z" fill="#687D87"/>
<path d="M35.8892 30.6674L35.561 30.0955C35.6876 29.9596 35.847 29.8611 36.0251 29.8096L36.3767 30.3486C36.3579 30.3439 36.3345 30.3439 36.311 30.3439C36.1095 30.3439 35.9407 30.4799 35.8892 30.6674Z" fill="#687D87"/>
<path d="M36.311 31.2301C36.0672 31.2301 35.8704 31.0332 35.8704 30.7895C35.8704 30.7473 35.875 30.7051 35.8891 30.6676L36.0579 30.9582L36.5735 30.6488L36.3813 30.3535C36.5922 30.3863 36.7563 30.5691 36.7563 30.7895C36.7563 31.0332 36.5547 31.2301 36.311 31.2301Z" fill="#E5E5E5"/>
<path d="M36.3109 31.8113C35.7484 31.8113 35.2891 31.352 35.2891 30.7895C35.2891 30.5223 35.3922 30.2738 35.5609 30.0957L35.8891 30.6676C35.875 30.7051 35.8703 30.7473 35.8703 30.7895C35.8703 31.0332 36.0672 31.2301 36.3109 31.2301C36.5547 31.2301 36.7563 31.0332 36.7563 30.7895C36.7563 30.5691 36.5922 30.3863 36.3812 30.3535L36.3766 30.3488L36.025 29.8098C36.1187 29.7816 36.2125 29.7676 36.3109 29.7676C36.8781 29.7676 37.3328 30.2223 37.3328 30.7895C37.3328 31.352 36.8781 31.8113 36.3109 31.8113Z" fill="#BDBDBE"/>
<path d="M35.8702 29.5705L35.4155 29.8424L35.3687 29.7533L35.814 29.4814L35.8702 29.5705Z" fill="#445B69"/>
<path d="M35.6968 29.3027C35.5375 29.3684 35.3921 29.4621 35.2609 29.5699L35.2468 29.5418L35.6781 29.2793L35.6968 29.3027Z" fill="#445B69"/>
<path d="M35.4155 29.8422L35.8702 29.5703L36.0249 29.8094C35.8468 29.8609 35.6874 29.9594 35.5608 30.0953L35.4155 29.8422Z" fill="#687D87"/>
<path d="M35.261 29.5699C35.3922 29.4621 35.5375 29.3684 35.6969 29.3027L35.7344 29.359L35.2985 29.6309L35.261 29.5699Z" fill="#445B69"/>
<path d="M35.6781 29.2793L35.2468 29.5418L35.1765 29.4199L35.6031 29.1621L35.6781 29.2793Z" fill="#687D87"/>
<path d="M35.814 29.4813L35.3687 29.7531L35.2983 29.6313L35.7343 29.3594L35.814 29.4813Z" fill="#687D87"/>
<path d="M35.336 28.7549C35.3173 28.7596 35.2985 28.7689 35.2798 28.783L35.336 28.7549Z" fill="#687D87"/>
<path d="M35.1296 29.3311L35.5515 29.0732L35.6031 29.1623L35.1765 29.4201L35.1296 29.3311Z" fill="#445B69"/>
<path d="M35.4672 28.9518L35.0547 29.2096L35.0078 29.1205L35.4156 28.8721L35.4672 28.9518Z" fill="#445B69"/>
<path d="M35.1297 29.3309L35.0547 29.209L35.4672 28.9512L35.5516 29.073L35.1297 29.3309Z" fill="#687D87"/>
<path d="M35.2797 28.7832L35.0266 28.9332C35.1063 28.877 35.1907 28.8254 35.2797 28.7832Z" fill="#445B69"/>
<path d="M35.0079 29.1207L34.9376 28.9988C34.9563 28.9848 34.9751 28.9707 34.9938 28.9566L35.0267 28.9332L35.2798 28.7832C35.2985 28.7691 35.3173 28.7598 35.336 28.7551L35.4157 28.8723L35.0079 29.1207ZM34.8579 28.8629C34.9798 28.7645 35.111 28.6848 35.2517 28.6191L35.2845 28.6707L34.886 28.9051L34.8579 28.8629Z" fill="#687D87"/>
<path d="M34.7078 30.7895C34.7078 30.302 34.9234 29.866 35.2609 29.5707L35.2984 29.6316L35.3687 29.7535L35.4156 29.8426L35.5609 30.0957C35.3921 30.2738 35.289 30.5223 35.289 30.7895C35.289 31.352 35.7484 31.8113 36.3109 31.8113C36.8781 31.8113 37.3328 31.352 37.3328 30.7895C37.3328 30.2223 36.8781 29.7676 36.3109 29.7676C36.2125 29.7676 36.1187 29.7816 36.025 29.8098L35.8703 29.5707L35.814 29.4816L35.7343 29.3598L35.6968 29.3035C35.8843 29.2238 36.0953 29.1816 36.3109 29.1816C37.2015 29.1816 37.9187 29.8988 37.9187 30.7895C37.9187 31.6754 37.2015 32.3973 36.3109 32.3973C35.425 32.3973 34.7078 31.6754 34.7078 30.7895Z" fill="#DEDEDF"/>
<path d="M34.9329 28.9936L34.9938 28.9561C34.975 28.9701 34.9563 28.9842 34.9329 28.9936Z" fill="#687D87"/>
<path d="M34.9938 28.9559L34.9329 28.9934L34.886 28.9043L35.2844 28.6699L35.3313 28.7496L35.2797 28.7824C35.1907 28.8246 35.1063 28.8762 35.0266 28.9324L34.9938 28.9559Z" fill="#445B69"/>
<path d="M34.8157 28.792L34.7642 28.7029L35.1485 28.4639L35.2048 28.5529L34.8157 28.792Z" fill="#445B69"/>
<path d="M35.2516 28.6184C35.111 28.684 34.9797 28.7637 34.8579 28.8621L34.8157 28.7918L35.2047 28.5527L35.2516 28.6184Z" fill="#687D87"/>
<path d="M35.1485 28.4637L34.7642 28.7027L34.6938 28.5715L35.0688 28.3418L35.1485 28.4637Z" fill="#687D87"/>
<path d="M35.0687 28.342L34.6937 28.5717L34.6421 28.4873L35.0124 28.2529L35.0687 28.342Z" fill="#445B69"/>
<path d="M34.5718 28.3609L34.9374 28.1406L35.0124 28.2531L34.6421 28.4875L34.5718 28.3609Z" fill="#687D87"/>
<path d="M34.9374 28.141L34.5718 28.3613L34.5249 28.277L34.8858 28.0566L34.9374 28.141Z" fill="#445B69"/>
<path d="M34.5485 27.5361L34.5532 27.5455C34.5438 27.5502 34.5392 27.5549 34.5298 27.5596C34.5345 27.5502 34.5438 27.5408 34.5485 27.5361Z" fill="#687D87"/>
<path d="M34.525 28.2762L34.2812 27.8496C34.3703 27.7371 34.4547 27.6387 34.5297 27.559C34.5391 27.5543 34.5438 27.5496 34.5531 27.5449L34.8859 28.0559L34.525 28.2762Z" fill="#687D87"/>
<path d="M34.5297 27.5596C34.4688 27.5924 34.4079 27.6299 34.3469 27.6674L34.5016 27.4658L34.5485 27.5361C34.5438 27.5408 34.5344 27.5502 34.5297 27.5596Z" fill="#41ACD8"/>
<path d="M34.5298 27.5596C34.4548 27.6393 34.3704 27.7377 34.2813 27.8502L34.2485 27.7939L34.347 27.6674C34.4079 27.6299 34.4688 27.5924 34.5298 27.5596Z" fill="#41ACD8"/>
<path d="M34.0562 30.7887C34.0562 30.0621 34.403 29.4105 34.9374 28.998L35.0077 29.1199L35.0546 29.209L35.1296 29.3309L35.1765 29.4199L35.2468 29.5418L35.2608 29.5699C34.9233 29.8652 34.7077 30.3012 34.7077 30.7887C34.7077 31.6746 35.4249 32.3965 36.3108 32.3965C37.2015 32.3965 37.9187 31.6746 37.9187 30.7887C37.9187 29.898 37.2015 29.1809 36.3108 29.1809C36.0952 29.1809 35.8843 29.223 35.6968 29.3027L35.678 29.2793L35.603 29.1621L35.5515 29.073L35.4671 28.9512L35.4155 28.8715L35.3358 28.7543C35.6312 28.609 35.964 28.5293 36.3108 28.5293C37.5577 28.5293 38.5702 29.5418 38.5702 30.7887C38.5702 32.0355 37.5577 33.0434 36.3108 33.0434C35.0687 33.0434 34.0562 32.0355 34.0562 30.7887Z" fill="#C6C1C1"/>
<path d="M34.9376 28.9982C34.4032 29.4107 34.0563 30.0623 34.0563 30.7889C34.0563 32.0357 35.0688 33.0436 36.311 33.0436C37.5579 33.0436 38.5704 32.0357 38.5704 30.7889C38.5704 29.542 37.5579 28.5295 36.311 28.5295C35.9642 28.5295 35.6313 28.6092 35.336 28.7545L35.3313 28.7498L35.2845 28.6701L35.2517 28.6186C35.5704 28.4592 35.9313 28.3701 36.311 28.3701C37.647 28.3701 38.7298 29.4529 38.7298 30.7889C38.7298 32.1248 37.647 33.2029 36.311 33.2029C34.9798 33.2029 33.897 32.1248 33.897 30.7889C33.897 30.0014 34.2767 29.2982 34.8579 28.8623L34.886 28.9045L34.9376 28.9982Z" fill="#EFF3F5"/>
<path d="M32.8608 29.4811C33.1468 28.7264 33.6718 28.0889 34.3468 27.667L34.2483 27.7936L34.2812 27.8498C33.8827 28.342 33.3858 29.0639 33.0062 29.4857C32.9593 29.4857 32.9077 29.4811 32.8608 29.4811Z" fill="#41ACD8"/>
<path d="M33.0062 29.4855C33.3859 29.0637 33.8828 28.3418 34.2812 27.8496L34.525 28.2762L34.5718 28.3605L34.6421 28.4871L34.6937 28.5715L34.764 28.7027L34.8156 28.7918L34.8578 28.8621C34.2765 29.298 33.8968 30.0012 33.8968 30.7887C33.8968 32.1246 34.9796 33.2027 36.3109 33.2027C37.6468 33.2027 38.7296 32.1246 38.7296 30.7887C38.7296 29.4527 37.6468 28.3699 36.3109 28.3699C35.9312 28.3699 35.5703 28.459 35.2515 28.6184L35.2046 28.5527L35.1484 28.4637L35.0687 28.3418L35.0125 28.2527L34.9375 28.1402L34.8859 28.0559L34.5531 27.5449C35.0781 27.259 35.6734 27.0996 36.3109 27.0996C38.35 27.0996 40 28.7496 40 30.7887C40 32.823 38.35 34.4777 36.3109 34.4777C34.2765 34.4777 32.6218 32.823 32.6218 30.7887C32.6218 30.3293 32.7062 29.8887 32.8609 29.4809C32.9078 29.4809 32.9593 29.4855 33.0062 29.4855Z" fill="#2E435A"/>
<path d="M32.861 29.4817C32.2985 29.4629 31.7688 29.477 31.4501 29.6457C31.0095 29.7957 30.7938 29.7301 30.8642 29.5332C31.497 28.2442 31.7079 27.0629 32.2048 26.2848C33.6813 23.8942 36.7657 23.8238 39.4751 26.327C39.6626 26.5145 39.2595 26.9223 38.5001 26.9551C36.7376 26.8707 35.186 26.9035 34.5907 27.4942C34.5767 27.5082 34.5626 27.5223 34.5485 27.5363L34.5017 27.466L34.347 27.6676C33.672 28.0895 33.147 28.727 32.861 29.4817Z" fill="#41ACD8"/>
<path d="M31.5718 17.9926V15.9395C31.5718 15.9301 31.5718 15.9207 31.5671 15.916C31.8765 15.9957 32.1156 16.4316 32.1156 16.952C32.1156 17.477 31.8812 17.9082 31.5718 17.9926Z" fill="#445B69"/>
<path d="M31.4593 18.0105C31.0937 18.0105 30.7983 17.5371 30.7983 16.9512C30.7983 16.3699 31.0937 15.8965 31.4593 15.8965C31.4968 15.8965 31.5343 15.9012 31.5671 15.9152C31.5718 15.9199 31.5718 15.9293 31.5718 15.9387V17.9918C31.5343 18.0059 31.4968 18.0105 31.4593 18.0105ZM29.7671 17.8699C29.7108 17.9121 29.6452 17.9262 29.5796 17.9262C29.4718 17.9262 29.364 17.8746 29.2983 17.7762L28.7358 16.9277C28.9608 16.8293 29.1624 16.7215 29.3405 16.609L29.8655 17.4012C29.9687 17.5559 29.9218 17.7668 29.7671 17.8699Z" fill="#59CBEF"/>
<path d="M25.9843 15.859C25.9843 15.6715 26.1343 15.5215 26.3218 15.5215H28.4359C28.5484 15.5215 28.6562 15.5777 28.7171 15.6715L29.3406 16.609C29.1624 16.7215 28.9609 16.8293 28.7359 16.9277L28.2531 16.2012H26.3218C26.1343 16.2012 25.9843 16.0465 25.9843 15.859ZM19.9234 29.2184C19.9234 29.2465 19.9234 29.2746 19.9187 29.3027C19.9187 29.3074 19.9187 29.3121 19.914 29.3168C19.9187 29.284 19.9234 29.2512 19.9234 29.2184ZM19.8953 29.4199C19.9046 29.3871 19.9093 29.3543 19.914 29.3168C19.914 29.3496 19.9046 29.3824 19.8953 29.4199Z" fill="#445B69"/>
<path d="M20.4391 29.2933L20.8422 29.148C21.1281 28.5762 21.3438 27.948 21.3813 27.2965C21.3953 27.1183 21.3953 26.9355 21.3813 26.7574L21.7609 26.7246C21.9016 27.634 22.525 28.384 23.5703 28.6277H27.9859C30.0625 28.5996 30.7469 25.4308 28.9328 26.4902C28.7219 26.6074 28.8438 26.0121 29.0594 25.1965L28.9047 25.1543C29.2422 24.2637 29.4484 23.3215 29.7437 21.9715L30.3953 21.634C29.9266 20.3496 29.1719 19.098 28.3375 17.8558V17.0918C28.4781 17.0402 28.6094 16.984 28.7359 16.9277L29.2984 17.7762C29.3641 17.8746 29.4719 17.9262 29.5797 17.9262C29.6453 17.9262 29.7109 17.9121 29.7672 17.8699C29.9219 17.7668 29.9688 17.5558 29.8656 17.4012L29.3406 16.609C29.8141 16.3043 30.1047 15.9527 30.1562 15.5402C30.3016 15.484 30.4516 15.5496 30.6016 15.7183H31.3469C31.4594 15.7183 31.5578 15.8027 31.5672 15.9152C31.5344 15.9012 31.4969 15.8965 31.4594 15.8965C31.0937 15.8965 30.7984 16.3699 30.7984 16.9512C30.7984 17.5371 31.0937 18.0105 31.4594 18.0105C31.4969 18.0105 31.5344 18.0058 31.5719 17.9918V18.0574C31.5719 18.1793 31.4688 18.2777 31.3469 18.2777H30.3109C30.0906 18.2824 30.0297 18.6433 30.3156 18.7418C30.9016 18.8824 31.1641 19.4683 31.7078 20.9027C32.0547 21.7793 32.9453 22.9793 33.5125 23.1949C33.9016 23.3215 34.0281 23.4527 34.1172 23.6496C34.2766 24.1699 34.1734 24.5215 33.6063 24.6996C32.4391 25.1215 31.6234 26.1199 31.1359 27.5074C30.5922 29.1668 29.6078 30.0433 27.9391 30.1558H19.8438V30.0246H19.4922C19.6516 29.8746 19.7687 29.7199 19.8391 29.5605H19.8438C19.8672 29.5137 19.8813 29.4668 19.8953 29.4199C19.9047 29.3824 19.9141 29.3496 19.9141 29.3168C19.9187 29.3121 19.9187 29.3074 19.9187 29.3027L20.4391 29.2933Z" fill="#59CBEF"/>
<path d="M19.839 29.5605C19.6046 29.5559 19.3703 29.5652 19.1453 29.584C19.0656 29.3543 18.9625 29.134 18.8406 28.9277H19.8671C19.9046 29.0262 19.9234 29.1199 19.9234 29.2184C19.9234 29.2512 19.9187 29.284 19.914 29.3168C19.9093 29.3543 19.9046 29.3871 19.8953 29.4199C19.8812 29.4668 19.8671 29.5137 19.8437 29.5605H19.839Z" fill="#445B69"/>
<path d="M17.8843 29.8652C17.739 29.4996 17.5 29.1762 17.2 28.9277H18.8406C18.9625 29.134 19.0656 29.3543 19.1453 29.584C18.6906 29.6262 18.2593 29.7152 17.8843 29.8652Z" fill="#445B69"/>
<path d="M17.7391 29.9262C17.575 29.523 17.2937 29.1762 16.9375 28.9277H17.2C17.5 29.1762 17.7391 29.4996 17.8844 29.8652C17.8328 29.8793 17.7859 29.9027 17.7391 29.9262Z" fill="#445B69"/>
<path d="M15.2124 30.7887C15.2124 30.7793 15.2124 30.7652 15.2171 30.7559C15.2593 30.7559 15.3015 30.7605 15.3437 30.7605C15.6296 30.8074 15.878 30.8168 16.0983 30.7793C16.0983 30.784 16.0983 30.784 16.0983 30.7887C16.0983 31.0324 15.9015 31.2293 15.6577 31.2293C15.414 31.2293 15.2124 31.0324 15.2124 30.7887Z" fill="#E5E5E5"/>
<path d="M14.3829 28.9279C14.3782 28.9279 14.3782 28.9279 14.3782 28.9279H14.1157C14.5329 28.5811 15.072 28.3701 15.6579 28.3701C16.2438 28.3701 16.7829 28.5811 17.2001 28.9279H16.9376C16.5767 28.6748 16.136 28.5295 15.6579 28.5295C15.1845 28.5295 14.7438 28.6748 14.3829 28.9279Z" fill="#59CBEF"/>
<path d="M15.2173 30.7562C15.2313 30.5266 15.4235 30.3438 15.6579 30.3438C15.897 30.3438 16.0938 30.5406 16.0985 30.7797C15.8782 30.8172 15.6298 30.8078 15.3438 30.7609C15.3017 30.7609 15.2595 30.7562 15.2173 30.7562Z" fill="#445B69"/>
<path d="M15.6579 31.8111C15.0907 31.8111 14.636 31.3518 14.636 30.7893C14.636 30.7424 14.6407 30.6955 14.6454 30.6486C14.8188 30.7049 15.011 30.7424 15.2172 30.7564C15.2125 30.7658 15.2125 30.7799 15.2125 30.7893C15.2125 31.033 15.4141 31.2299 15.6579 31.2299C15.9016 31.2299 16.0985 31.033 16.0985 30.7893C16.0985 30.7846 16.0985 30.7846 16.0985 30.7799C16.3094 30.7518 16.4969 30.6814 16.6563 30.583C16.6704 30.6486 16.6797 30.7189 16.6797 30.7893C16.6797 31.3518 16.2204 31.8111 15.6579 31.8111Z" fill="#BDBDBE"/>
<path d="M14.6453 30.6488C14.7156 30.1473 15.1375 29.7676 15.6578 29.7676C16.15 29.7676 16.5625 30.1145 16.6562 30.5785V30.5832C16.4968 30.6816 16.3093 30.752 16.0984 30.7801C16.0937 30.541 15.8968 30.3441 15.6578 30.3441C15.4234 30.3441 15.2312 30.527 15.2171 30.7566C15.0109 30.7426 14.8187 30.7051 14.6453 30.6488Z" fill="#445B69"/>
<path d="M16.9375 28.9277H14.3828C14.7438 28.6746 15.1844 28.5293 15.6578 28.5293C16.1359 28.5293 16.5766 28.6746 16.9375 28.9277Z" fill="#59CBEF"/>
<path d="M15.6579 29.7676C15.1376 29.7676 14.7157 30.1473 14.6454 30.6488C14.4438 30.5785 14.2657 30.4754 14.1157 30.3348C14.3126 29.6645 14.9267 29.1816 15.6579 29.1816C16.3001 29.1816 16.8579 29.5566 17.111 30.1051C16.9892 30.302 16.8392 30.466 16.6563 30.5785C16.5626 30.1145 16.1501 29.7676 15.6579 29.7676Z" fill="#445B69"/>
<path d="M15.6579 32.3967C14.7672 32.3967 14.05 31.6748 14.05 30.7889C14.05 30.6295 14.0735 30.4795 14.1157 30.3342C14.2657 30.4748 14.4438 30.5779 14.6454 30.6482C14.6407 30.6951 14.636 30.742 14.636 30.7889C14.636 31.3514 15.0907 31.8107 15.6579 31.8107C16.2204 31.8107 16.6797 31.3514 16.6797 30.7889C16.6797 30.7186 16.6704 30.6482 16.6563 30.5826V30.5779C16.8391 30.4654 16.9891 30.3014 17.111 30.1045C17.2094 30.3107 17.2657 30.5451 17.2657 30.7889C17.2657 31.6748 16.5438 32.3967 15.6579 32.3967Z" fill="#DEDEDF"/>
<path d="M13.614 29.4949C13.5625 29.3262 13.5203 29.1387 13.4968 28.9277H14.1156C13.9187 29.0871 13.75 29.2793 13.614 29.4949ZM13.6796 29.6918C13.8531 29.3871 14.0921 29.1246 14.3781 28.9277C14.3781 28.9277 14.3781 28.9277 14.3828 28.9277H16.9375C17.2937 29.1762 17.575 29.523 17.739 29.9262C17.6453 29.9684 17.5515 30.0152 17.4671 30.0668L17.289 29.7434C17.2375 29.8746 17.1812 29.9965 17.1109 30.1043C16.8578 29.5559 16.3 29.1809 15.6578 29.1809C14.9265 29.1809 14.3125 29.6637 14.1156 30.334C13.9328 30.1746 13.7875 29.959 13.6796 29.6918Z" fill="#445B69"/>
<path d="M14.3781 28.9277C14.0921 29.1246 13.8531 29.3871 13.6796 29.6918C13.6562 29.6309 13.6328 29.5652 13.614 29.4949C13.75 29.2793 13.9187 29.0871 14.1156 28.9277H14.3781Z" fill="#445B69"/>
<path d="M13.3984 30.7893C13.3984 30.3908 13.5016 30.0205 13.6797 29.6924C13.7875 29.9596 13.9328 30.1752 14.1156 30.3346C14.0734 30.4799 14.05 30.6299 14.05 30.7893C14.05 31.6752 14.7672 32.3971 15.6578 32.3971C16.5437 32.3971 17.2656 31.6752 17.2656 30.7893C17.2656 30.5455 17.2094 30.3111 17.1109 30.1049C17.1812 29.9971 17.2375 29.8752 17.2891 29.7439L17.4672 30.0674C17.5516 30.0158 17.6453 29.9689 17.7391 29.9268C17.8516 30.1939 17.9125 30.4846 17.9125 30.7893C17.9125 32.0361 16.9047 33.0439 15.6578 33.0439C14.4109 33.0439 13.3984 32.0361 13.3984 30.7893Z" fill="#C6C1C1"/>
<path d="M13.675 22.8389C13.6703 22.3467 13.5672 21.9764 13.4031 21.7326C12.9344 21.0623 13.1359 20.6592 13.6515 20.6498H17.4672C17.8 20.6405 18.1094 20.678 18.3859 20.7764C19.6422 21.3998 21.8359 21.142 22.6797 20.8561C23.2422 20.6639 23.6922 20.5842 24.1937 20.8045C25.3281 21.3623 25.7594 22.567 24.4515 22.8014L14.4719 22.8951C13.9515 23.1998 13.6562 23.2186 13.675 22.8389Z" fill="#445B69"/>
<path d="M13.464 28.9277C13.0843 28.9137 12.7328 28.9418 12.4187 29.0215C12.6156 28.6559 12.8734 28.3324 13.1734 28.0559C13.8296 27.4605 14.7015 27.0996 15.6578 27.0996C17.0125 27.0996 18.2031 27.8309 18.8406 28.9277H17.2C16.7828 28.5809 16.2437 28.3699 15.6578 28.3699C15.0718 28.3699 14.5328 28.5809 14.1156 28.9277H13.4968H13.464Z" fill="#59CBEF"/>
<path d="M15.6578 33.2029C14.3218 33.2029 13.239 32.1248 13.239 30.7889C13.239 30.3154 13.375 29.8701 13.614 29.4951C13.6328 29.5654 13.6562 29.6311 13.6796 29.692C13.5015 30.0201 13.3984 30.3904 13.3984 30.7889C13.3984 32.0357 14.4109 33.0436 15.6578 33.0436C16.9046 33.0436 17.9125 32.0357 17.9125 30.7889C17.9125 30.4842 17.8515 30.1936 17.739 29.9264C17.7859 29.9029 17.8328 29.8795 17.8843 29.8654C18.0062 30.1514 18.0718 30.4607 18.0718 30.7889C18.0718 32.1248 16.9937 33.2029 15.6578 33.2029Z" fill="#EFF3F5"/>
<path d="M15.6578 34.4783C13.6187 34.4783 11.9688 32.8236 11.9688 30.7892C11.9688 30.147 12.1328 29.547 12.4188 29.022C12.7328 28.9423 13.0844 28.9142 13.4641 28.9283H13.4969C13.5203 29.1392 13.5625 29.3267 13.6141 29.4955C13.375 29.8705 13.2391 30.3158 13.2391 30.7892C13.2391 32.1252 14.3219 33.2033 15.6578 33.2033C16.9938 33.2033 18.0719 32.1252 18.0719 30.7892C18.0719 30.4611 18.0062 30.1517 17.8844 29.8658C18.2594 29.7158 18.6906 29.6267 19.1453 29.5845C19.2766 29.9642 19.3469 30.3673 19.3469 30.7892C19.3469 32.8236 17.6922 34.4783 15.6578 34.4783Z" fill="#2E435A"/>
<path d="M12.8782 26.6592H12.55V27.7701H12.8782V26.6592Z" fill="#E5E5E5"/>
<path d="M11.9453 26.6595C12.6297 25.9048 13.3984 25.2298 14.275 24.7283C15.325 24.1095 16.5438 23.7205 17.7531 23.8095C18.9484 23.8845 20.1438 24.4939 20.6969 25.558C21.2547 26.6173 21.0063 28.2439 20.4391 29.2939L19.9188 29.3033C19.9234 29.2752 19.9234 29.247 19.9234 29.2189C19.9234 29.1205 19.9047 29.0267 19.8672 28.9283H18.8406C18.2031 27.8314 17.0125 27.1002 15.6578 27.1002C14.7016 27.1002 13.8297 27.4611 13.1734 28.0564L12.8781 27.7705V26.6595H12.55H11.9453Z" fill="#59CBEF"/>
<path d="M14.2751 24.7277C13.3985 25.2293 12.6298 25.9043 11.9454 26.659H11.6548C12.372 25.8293 13.1923 25.0746 14.1485 24.5074C15.222 23.8652 16.4829 23.4387 17.772 23.5183C18.4095 23.5558 19.0517 23.7246 19.6188 24.034C20.1907 24.3433 20.6735 24.8262 20.9923 25.398C21.2173 25.8199 21.3438 26.284 21.3813 26.7574C21.3954 26.9355 21.3954 27.1183 21.3813 27.2965C21.3438 27.948 21.1282 28.5762 20.8423 29.148L20.4392 29.2933C21.0063 28.2433 21.2548 26.6168 20.697 25.5574C20.1438 24.4933 18.9485 23.884 17.7532 23.809C16.5438 23.7199 15.3251 24.109 14.2751 24.7277Z" fill="#41ACD8"/>
<path d="M13.8016 23.4902L11.8937 25.4449C11.7953 25.4402 11.7062 25.4309 11.6172 25.4168C12.1984 24.7184 12.8875 24.0855 13.6516 23.4902H13.6562H13.8016Z" fill="#59CBEF"/>
<path d="M11.3501 27.0154C11.4485 26.8936 11.5517 26.7764 11.6548 26.6592H11.9454C11.7954 26.8186 11.6548 26.9826 11.5142 27.1514L11.3501 27.0154Z" fill="#F0582F"/>
<path d="M11.0828 25.1871V24.6949C11.0828 24.5402 11.1437 24.3949 11.2468 24.2871L11.8328 23.673C11.9453 23.5559 12.1 23.4902 12.2593 23.4902H13.6515C12.8875 24.0855 12.1984 24.7184 11.6171 25.4168C11.4015 25.384 11.214 25.3137 11.0828 25.1871Z" fill="#D1395D"/>
<path d="M10.8765 27.7701L11.4952 26.6592H11.6546C11.5515 26.7764 11.4483 26.8936 11.3499 27.0154L11.514 27.1514C11.6546 26.9826 11.7952 26.8186 11.9452 26.6592H12.5499V27.7701H10.8765Z" fill="#F0582F"/>
<path d="M11.4953 26.6596L10.8766 27.7705H12.55H12.8781L13.1734 28.0564C12.8734 28.333 12.6156 28.6564 12.4187 29.0221C12.2641 29.0689 12.1141 29.1252 11.9828 29.2002C11.7391 29.8283 11.125 29.4955 10.9656 28.9471C10.8109 28.4174 10.6281 28.3846 10 28.5346C10.2859 27.3533 10.8578 26.3314 11.6172 25.4174C11.7063 25.4314 11.7953 25.4408 11.8937 25.4455L13.8016 23.4908H13.6562C13.9188 23.2893 14.1953 23.0877 14.4719 22.8955L24.4516 22.8018C22.3938 23.7205 21.5594 25.3939 21.7609 26.7252L21.3813 26.758C21.3438 26.2846 21.2172 25.8205 20.9922 25.3986C20.6734 24.8268 20.1906 24.3439 19.6188 24.0346C19.0516 23.7252 18.4094 23.5564 17.7719 23.5189C16.4828 23.4393 15.2219 23.8658 14.1484 24.508C13.1922 25.0752 12.3719 25.8299 11.6547 26.6596H11.4953Z" fill="#59CBEF"/>
<path d="M19.4781 25.3652H14.7625V26.1293H19.4781V25.3652Z" fill="#41ACD8"/>
<path d="M19.4781 26.9355H14.7625V27.6996H19.4781V26.9355Z" fill="#41ACD8"/>
</g>
<defs>
<clipPath id="clip0_667_6770">
<rect width="30" height="30" fill="white" transform="translate(10 10)"/>
</clipPath>
</defs>
</svg>
