<svg width="51" height="50" viewBox="0 0 51 50" fill="none" xmlns="http://www.w3.org/2000/svg">
<g clip-path="url(#clip0_667_6759)">
<path d="M25.5 50.0001C39.3071 50.0001 50.5 38.8072 50.5 25.0001C50.5 11.1929 39.3071 0 25.5 0C11.6929 0 0.5 11.1929 0.5 25.0001C0.5 38.8072 11.6929 50.0001 25.5 50.0001Z" fill="#FFE6BD"/>
<path fill-rule="evenodd" clip-rule="evenodd" d="M15.0834 36.4422V31.56C15.0834 27.3496 18.3355 23.959 22.375 23.959H28.625C32.6657 23.959 35.9167 27.3496 35.9167 31.56V36.4422H15.0834Z" fill="#DCA600"/>
<path d="M25.4802 22.3337C28.3452 22.3337 30.6677 20.0018 30.6677 17.1253C30.6677 14.2488 28.3452 11.917 25.4802 11.917C22.6152 11.917 20.2927 14.2488 20.2927 17.1253C20.2927 20.0018 22.6152 22.3337 25.4802 22.3337Z" fill="#DCA600"/>
<path d="M19.25 31.7314V36.4586M31.75 31.7314V36.4586" stroke="white" stroke-linejoin="round"/>
</g>
<defs>
<clipPath id="clip0_667_6759">
<rect width="50" height="50" fill="white" transform="translate(0.5)"/>
</clipPath>
</defs>
</svg>
