<svg width="51" height="50" viewBox="0 0 51 50" fill="none" xmlns="http://www.w3.org/2000/svg">
<path d="M48.3571 24.9997C48.3571 26.964 48.1071 28.8569 47.6428 30.6783C45.1428 40.4283 36.3928 47.6426 25.9285 47.8211H25.5C12.8928 47.8211 2.64282 37.5711 2.64282 24.964C2.64282 12.3569 12.8928 2.14258 25.5 2.14258C38.1071 2.14258 48.3571 12.3926 48.3571 24.9997Z" fill="#FFC5C5"/>
<path d="M36.8571 24.2141L33.25 16.4999C32.9285 15.7856 32.2143 15.3213 31.4285 15.3213H19.5714C18.7857 15.3213 18.0714 15.7856 17.75 16.4999L14.1428 24.2141H36.8571Z" fill="#E45647"/>
<path d="M16.2144 22.8574L18.9644 17.0003C19.0715 16.7503 19.3215 16.6074 19.5715 16.6074H31.4286C31.6786 16.6074 31.9286 16.7503 32.0358 17.0003L34.7858 22.8574H16.2144Z" fill="#F3F3F3"/>
<path d="M11.5356 26.2139V29.9639H39.4285V26.2139C39.4285 25.1067 38.5356 24.2139 37.4285 24.2139H13.5356C12.4285 24.2139 11.5356 25.1067 11.5356 26.2139Z" fill="#CD4D40"/>
<path d="M11.2144 31.5354V30.214C11.2144 30.0354 11.3572 29.8926 11.5358 29.8926H39.4286C39.6072 29.8926 39.7501 30.0354 39.7501 30.214V31.5354C39.7501 31.714 39.6072 31.8569 39.4286 31.8569H11.5358C11.3572 31.8569 11.2144 31.714 11.2144 31.5354Z" fill="#DFE1E2"/>
<path d="M12.3928 31.8574V34.036C12.3928 34.3931 12.6785 34.7146 13.0714 34.7146H15.6785C16.0357 34.7146 16.3571 34.4289 16.3571 34.036V31.8574H12.3928ZM34.6785 31.8574V34.036C34.6785 34.3931 34.9643 34.7146 35.3571 34.7146H37.9643C38.3214 34.7146 38.6428 34.4289 38.6428 34.036V31.8574H34.6785Z" fill="#263A46"/>
<path d="M18.2857 27.714V28.1426C18.2857 28.3211 18.1072 28.4997 17.9286 28.4997H13.9643C13.7857 28.4997 13.6072 28.3211 13.6072 28.1426V25.9997C13.6072 25.8211 13.7857 25.6426 13.9643 25.6426H16.25C17.3929 25.6426 18.2857 26.5711 18.2857 27.714Z" fill="#F3F3F3"/>
<path d="M15.7499 26C15.1428 26 14.6785 26.4643 14.6785 27.0714C14.6785 27.6786 15.1428 28.1429 15.7499 28.1429C16.357 28.1429 16.8213 27.6786 16.8213 27.0714C16.8213 26.5 16.357 26 15.7499 26Z" fill="#FFC5C5"/>
<path d="M32.7144 27.714V28.1426C32.7144 28.3211 32.8929 28.4997 33.0715 28.4997H37.0715C37.2501 28.4997 37.4286 28.3211 37.4286 28.1426V25.9997C37.4286 25.8211 37.2501 25.6426 37.0715 25.6426H34.7858C33.6072 25.6426 32.7144 26.5711 32.7144 27.714Z" fill="#F3F3F3"/>
<path d="M35.2499 26C35.857 26 36.3213 26.4643 36.3213 27.0714C36.3213 27.6786 35.857 28.1429 35.2499 28.1429C34.6428 28.1429 34.1785 27.6786 34.1785 27.0714C34.1785 26.5 34.6428 26 35.2499 26Z" fill="#FFC5C5"/>
<path d="M29.1787 26.3571V27.7857C29.1787 27.9643 29.0358 28.1429 28.8215 28.1429H22.1787C22.0001 28.1429 21.8215 27.9643 21.8215 27.7857V26.3571C21.8215 26.1786 22.0001 26 22.1787 26H28.8572C29.0358 26 29.1787 26.1786 29.1787 26.3571Z" fill="#F3F3F3"/>
<path opacity="0.15" d="M25.6428 16.6426L21.1785 22.8569H19.4285L23.8928 16.6426H25.6428ZM30.1785 16.6426L25.7142 22.8569H23.9642L28.4285 16.6426H30.1785Z" fill="#263A46"/>
</svg>
